<?xml version="1.0" standalone="no"?>
<!DOCTYPE svg PUBLIC "-//W3C//DTD SVG 20010904//EN"
 "http://www.w3.org/TR/2001/REC-SVG-20010904/DTD/svg10.dtd">
<svg version="1.0" xmlns="http://www.w3.org/2000/svg"
 width="225.000000pt" height="225.000000pt" viewBox="0 0 225.000000 225.000000"
 preserveAspectRatio="xMidYMid meet">
<metadata>
Created by potrace 1.14, written by Peter Selinger 2001-2017
</metadata>
<g transform="translate(0.000000,225.000000) scale(0.100000,-0.100000)"
fill="#000000" stroke="none">
<path d="M965 1987 c-131 -34 -233 -115 -292 -234 -32 -65 -37 -86 -41 -163
-4 -70 0 -103 17 -158 24 -78 88 -172 146 -213 l36 -26 -59 -12 c-112 -22
-180 -92 -206 -213 -5 -24 -12 -28 -39 -28 -24 0 -76 29 -220 126 -144 95
-195 124 -215 122 l-27 -3 0 -435 0 -435 27 -3 c20 -2 71 27 215 122 140 94
196 126 219 126 l31 0 6 -95 c4 -78 10 -103 33 -146 16 -28 42 -62 59 -75 70
-53 83 -54 563 -54 312 0 456 4 484 12 46 13 121 77 146 122 13 23 18 65 22
166 l5 135 63 3 62 3 0 -36 0 -36 93 3 92 3 0 185 0 185 -92 3 -93 3 0 -36 0
-35 -60 0 c-69 0 -67 -2 -72 87 l-4 61 50 24 c68 31 141 106 174 175 24 51 27
70 27 158 0 82 -4 109 -22 148 -88 191 -307 276 -490 192 -30 -13 -67 -34 -83
-45 l-28 -20 -17 50 c-40 120 -142 225 -262 270 -70 26 -182 34 -248 17z m156
-312 c117 -61 71 -238 -62 -238 -69 0 -122 53 -122 122 0 98 99 160 184 116z
m714 -205 c55 -51 54 -139 -1 -191 -21 -20 -36 -24 -84 -24 -67 0 -101 23
-120 82 -19 57 12 131 64 154 37 16 114 4 141 -21z m-145 -780 l0 -310 -315 0
-315 0 0 310 0 310 315 0 315 0 0 -310z m-788 -109 c23 -26 28 -41 28 -82 0
-45 -4 -55 -34 -85 -28 -28 -42 -34 -75 -34 -56 0 -95 22 -115 64 -20 43 -20
69 0 112 23 47 58 65 118 60 41 -3 55 -9 78 -35z"/>
<path d="M1190 690 l0 -190 185 0 185 0 0 190 0 190 -185 0 -185 0 0 -190z"/>
</g>
</svg>
